<svg xmlns="http://www.w3.org/2000/svg" width="50" height="50" viewBox="0 0 50 50">
  <g fill="none" fill-rule="evenodd">
    <circle cx="25" cy="25" r="25" fill="#828B95"/>
    <path fill="#FFFFFF" d="M36.794 30.34c0-1.193-1.539-2.556-4.569-3.35a10.228 10.228 0 0 1-2.893-1.335c-.195-.113-.165-1.155-.165-1.155l-.976-.15c0-.085-.083-1.335-.083-1.335 1.167-.398 1.047-2.745 1.047-2.745.742.417 1.225-1.44 1.225-1.44.877-2.58-.437-2.424-.437-2.424.23-1.575.23-3.175 0-4.75-.584-5.225-9.379-3.807-8.336-2.1-2.57-.48-1.984 5.449-1.984 5.449l.558 1.535c-1.095.72-.334 1.59-.296 2.593.054 1.48.947 1.173.947 1.173.055 2.442 1.242 2.76 1.242 2.76.224 1.533.084 1.272.084 1.272l-1.057.13c.015.349-.013.698-.083 1.04-1.243.561-1.51.89-2.746 1.44-2.386 1.06-4.98 2.439-5.44 4.295C12.37 33.1 11 39.003 11 39.003h28.03l-2.236-8.663z"/>
  </g>
</svg>
