<svg width="20" height="14" xmlns="http://www.w3.org/2000/svg"><path d="M13.612 5.303a2.533 2.533 0 0 1-.035.39c-.039.059-.072.122-.098.188.022 0 .25.108.25.108l.887.285-.013.429c-.168.069-.523.33-.585.414.808.334 1.549 1.004 1.568 1.552.013.098.502 1.894.531 2.299h3.46c.003-.017-.113-2.341-.114-2.359 0 0-.214-.56-.553-.617a2.62 2.62 0 0 1-.958-.32 3.503 3.503 0 0 0-.614-.288.94.94 0 0 1-.248-.359 1.046 1.046 0 0 0-.429-.322l-.012-.43.886-.283s.229-.108.251-.108a1.747 1.747 0 0 0-.122-.219c-.017-.045-.1-.359-.1-.359a2.3 2.3 0 0 0 .451.447 6.52 6.52 0 0 1-.386-.895 5.81 5.81 0 0 1-.148-.867 13.116 13.116 0 0 0-.284-1.613 1.516 1.516 0 0 0-.469-.675 2.144 2.144 0 0 0-1.072-.389h-.045c-.386.03-.756.165-1.072.389a1.521 1.521 0 0 0-.469.675c-.128.531-.223 1.07-.284 1.613-.023.299-.07.595-.14.886a5.73 5.73 0 0 1-.394.875c.113-.085.233-.234.36-.447zm1.94 7.703c0-.51-.28-1.846-.841-4.007-.404-.676-1.005-1.12-1.801-1.33a4.022 4.022 0 0 1-1.14-.53 1.031 1.031 0 0 1-.066-.458l-.383-.06c0-.034-.032-.53-.032-.53.46-.158.412-1.09.412-1.09.293.166.483-.57.483-.57.346-1.024-.172-.962-.172-.962.09-.625.09-1.26 0-1.886C11.782-.49 8.316.072 8.727.75c-1.013-.192-.782 2.163-.782 2.163l.22.609c-.432.285-.132.63-.117 1.029.021.588.372.466.372.466.022.969.49 1.096.49 1.096.088.609.033.504.033.504l-.416.051c.005.139-.006.277-.033.413-.491.224-.595.354-1.082.571-.94.42-1.963.968-2.144 1.705-.182.737-.723 3.65-.723 3.65h11.008zM6.537 5.69c.039.06.072.123.098.19-.022 0-.252.109-.252.109l-.892.285.013.433c.169.069.318.18.43.325.044.095.096.187.158.272-.812.336-1.559.83-1.578 1.382-.013.098-.505 1.906-.534 2.314H.496C.493 10.983.61 8.643.61 8.625c0 0 .216-.563.557-.62.34-.044.667-.154.964-.323.196-.116.403-.213.619-.29.11-.099.195-.222.249-.36.113-.145.262-.257.431-.325l.013-.433-.892-.285s-.23-.109-.252-.109c.035-.076.076-.15.122-.22.017-.046.101-.361.101-.361-.13.17-.283.321-.454.449.152-.29.282-.591.389-.9.071-.287.12-.58.148-.873.062-.547.157-1.089.286-1.624.092-.265.255-.5.472-.68.318-.225.69-.36 1.08-.39h.044c.389.03.762.165 1.08.39.216.18.38.415.471.68.13.535.225 1.077.286 1.624.024.3.071.599.142.892.107.304.24.599.396.88a2.321 2.321 0 0 1-.452-.45s.108.346.126.393z" fill="#FFF" fill-rule="evenodd" /></svg>